<svg id="Camada_1" data-name="Camada 1" xmlns="http://www.w3.org/2000/svg" viewBox="0 0 1282 452"><defs><style>.cls-1{fill:#fff;}</style></defs><title>LogoGRVA_secundaria_fundo_escuro</title><path class="cls-1" d="M734.32,363.35q0,27-27.58,27H611.87q-26.8,0-26.8-27V122.15q0-27.2,27.38-27.18h94.29q27.59,0,27.58,27.18v63H689V132.9H630.19V352.41H689V269.74H655.45V232.18h78.87Z"/><path class="cls-1" d="M924.84,390.34H877.79L828,253.13V226.52h44.35V132.9H815.5V390.34H770.38V95H890.13q27.18,0,27.19,27.18V229.54q0,18.68-12.92,24.16-6.95,2.82-29.31,2.83Z"/><path class="cls-1" d="M1102.63,95l-57.85,295.75H999.85L942.19,95h45.32l33.74,202.51q.39,8.68,1.16,25.3-.2-8.68,1.16-25.3L1057.51,95Z"/><path class="cls-1" d="M1281,390.34h-44.74l-9.06-56h-56.5l-9.06,56h-44.55v-.75l58.43-295H1223Zm-60.16-94-22-133.25-22.17,133.25Z"/><path class="cls-1" d="M401.75,341.87l-77.4,44.69V288.81L409,239.94v89.39l72.7,42V54.6c-30.8-17.78-69.3,4.45-69.3,40v55.2c-1.94-1.25-3.92-2.47-5.93-3.64L335.18,105l-10.83-6.25v83.94l77.41,44.69-84.65,48.87L232.46,227.4l77.41-44.69V90.41L162.36,5.25a34.65,34.65,0,0,0-34.65,60l120.1,69.34-17.32,10L75.73,55.25a34.65,34.65,0,0,0-34.65,60l136.16,78.61a152,152,0,0,0-8.66,15L53,142.14a34.65,34.65,0,0,0-34.65,60l134.2,77.47v20L73.19,253.83a34.65,34.65,0,0,0-34.65,60l106.75,61.63,79.93-46.15V239.94l84.65,48.87v97.75l-77.4-44.69-72.7,42,10.82,6.25h0l71.28,41.15a150.46,150.46,0,0,0,150.47,0l82.11-47.4Z"/></svg>